REM DIRINDEX 1\2,1\3,1\4,1\5
REM DIRNAME folder01,folder02,folder03,folder04,folder05
TITLE ""
FILE "P1Q_t_1372-1381.mp3" MP3
  TRACK 01 AUDIO
    TITLE "3:cjc005_5023"
    INDEX 01 00:00:00
  TRACK 02 AUDIO
    TITLE "0:"
    INDEX 01 00:01:07
  TRACK 03 AUDIO
    TITLE "4:cjc005_5024"
    INDEX 01 00:01:32
  TRACK 04 AUDIO
    TITLE "0:"
    INDEX 01 00:02:43
  TRACK 05 AUDIO
    TITLE "5:cjc005_5025"
    INDEX 01 00:02:67
  TRACK 06 AUDIO
    TITLE "0:"
    INDEX 01 00:06:31
  TRACK 07 AUDIO
    TITLE "3:cjc005_5026"
    INDEX 01 00:07:05
  TRACK 08 AUDIO
    TITLE "0:"
    INDEX 01 00:08:32
  TRACK 09 AUDIO
    TITLE "4:cjc005_5027"
    INDEX 01 00:08:58
  TRACK 10 AUDIO
    TITLE "0:"
    INDEX 01 00:10:08
  TRACK 11 AUDIO
    TITLE "5:cjc005_5028"
    INDEX 01 00:10:31
  TRACK 12 AUDIO
    TITLE "0:"
    INDEX 01 00:14:07
  TRACK 13 AUDIO
    TITLE "3:cjc005_5029"
    INDEX 01 00:14:58
  TRACK 14 AUDIO
    TITLE "0:"
    INDEX 01 00:16:16
  TRACK 15 AUDIO
    TITLE "4:cjc005_5030"
    INDEX 01 00:16:40
  TRACK 16 AUDIO
    TITLE "0:"
    INDEX 01 00:17:53
  TRACK 17 AUDIO
    TITLE "5:cjc005_5031"
    INDEX 01 00:18:01
  TRACK 18 AUDIO
    TITLE "0:"
    INDEX 01 00:21:19
  TRACK 19 AUDIO
    TITLE "3:cjc005_5032"
    INDEX 01 00:21:70
  TRACK 20 AUDIO
    TITLE "0:"
    INDEX 01 00:23:32
  TRACK 21 AUDIO
    TITLE "4:cjc005_5033"
    INDEX 01 00:23:59
  TRACK 22 AUDIO
    TITLE "0:"
    INDEX 01 00:24:69
  TRACK 23 AUDIO
    TITLE "5:cjc005_5034"
    INDEX 01 00:25:19
  TRACK 24 AUDIO
    TITLE "0:"
    INDEX 01 00:29:46
  TRACK 25 AUDIO
    TITLE "3:cjc005_5035"
    INDEX 01 00:30:30
  TRACK 26 AUDIO
    TITLE "0:"
    INDEX 01 00:31:49
  TRACK 27 AUDIO
    TITLE "4:cjc005_5036"
    INDEX 01 00:31:71
  TRACK 28 AUDIO
    TITLE "0:"
    INDEX 01 00:32:70
  TRACK 29 AUDIO
    TITLE "5:cjc005_5037"
    INDEX 01 00:33:21
  TRACK 30 AUDIO
    TITLE "0:"
    INDEX 01 00:38:49
  TRACK 31 AUDIO
    TITLE "3:cjc005_5038"
    INDEX 01 00:39:35
  TRACK 32 AUDIO
    TITLE "0:"
    INDEX 01 00:40:72
  TRACK 33 AUDIO
    TITLE "4:cjc005_5039"
    INDEX 01 00:41:18
  TRACK 34 AUDIO
    TITLE "0:"
    INDEX 01 00:42:31
  TRACK 35 AUDIO
    TITLE "5:cjc005_5040"
    INDEX 01 00:42:51
  TRACK 36 AUDIO
    TITLE "0:"
    INDEX 01 00:46:43
  TRACK 37 AUDIO
    TITLE "3:cjc005_5041"
    INDEX 01 00:47:17
  TRACK 38 AUDIO
    TITLE "0:"
    INDEX 01 00:48:16
  TRACK 39 AUDIO
    TITLE "4:cjc005_5042"
    INDEX 01 00:48:40
  TRACK 40 AUDIO
    TITLE "0:"
    INDEX 01 00:50:23
  TRACK 41 AUDIO
    TITLE "5:cjc005_5043"
    INDEX 01 00:50:48
  TRACK 42 AUDIO
    TITLE "0:"
    INDEX 01 00:54:32
  TRACK 43 AUDIO
    TITLE "3:cjc005_5044"
    INDEX 01 00:55:04
  TRACK 44 AUDIO
    TITLE "0:"
    INDEX 01 00:56:14
  TRACK 45 AUDIO
    TITLE "4:cjc005_5045"
    INDEX 01 00:56:39
  TRACK 46 AUDIO
    TITLE "0:"
    INDEX 01 00:57:37
  TRACK 47 AUDIO
    TITLE "5:cjc005_5046"
    INDEX 01 00:57:64
  TRACK 48 AUDIO
    TITLE "0:"
    INDEX 01 01:03:14
  TRACK 49 AUDIO
    TITLE "3:cjc005_5047"
    INDEX 01 01:03:65
  TRACK 50 AUDIO
    TITLE "0:"
    INDEX 01 01:05:07
  TRACK 51 AUDIO
    TITLE "4:cjc005_5048"
    INDEX 01 01:05:32
  TRACK 52 AUDIO
    TITLE "0:"
    INDEX 01 01:06:43
  TRACK 53 AUDIO
    TITLE "5:cjc005_5049"
    INDEX 01 01:06:69
  TRACK 54 AUDIO
    TITLE "0:"
    INDEX 01 01:11:37
  TRACK 55 AUDIO
    TITLE "3:cjc005_5050"
    INDEX 01 01:12:13
  TRACK 56 AUDIO
    TITLE "0:"
    INDEX 01 01:13:10
  TRACK 57 AUDIO
    TITLE "4:cjc005_5051"
    INDEX 01 01:13:42
  TRACK 58 AUDIO
    TITLE "0:"
    INDEX 01 01:14:37
  TRACK 59 AUDIO
    TITLE "5:cjc005_5052"
    INDEX 01 01:14:61
  TRACK 60 AUDIO
    TITLE "0:"
    INDEX 01 01:18:25
